<svg width="607" height="435" viewBox="0 0 607 435" fill="none" xmlns="http://www.w3.org/2000/svg">
<path d="M529.904 378.445C524.973 378.869 520.011 378.802 515.093 378.247C461.022 372.274 387.392 373.973 327.37 411.13C244.36 462.51 114.269 418.525 56.8832 394.595C13.0364 376.319 -9.72645 331.553 3.94626 289.534C4.13876 288.941 4.3366 288.348 4.54514 287.755C13.1487 262.784 30.1313 243.241 51.1618 232.882C69.4919 223.853 96.2544 204.999 108.163 168.772C113.082 153.813 119.83 139.74 128.594 127.474C152.063 94.6224 201.193 45.7008 285.689 46.0053C300.503 46.077 315.207 48.5637 329.22 53.3673C360.089 63.8761 387.969 85.2409 409.23 114.86C422.795 133.751 443.125 151.312 472.23 152.744C512.622 154.742 551.17 173.532 580.088 206.971C580.922 207.933 581.745 208.899 582.569 209.877C634.057 271.161 598.295 372.472 529.904 378.445Z" fill="#284786"/>
<g opacity="0.7">
<path opacity="0.7" d="M148.362 372.434C152.438 372.434 155.742 369.133 155.742 365.061C155.742 360.989 152.438 357.688 148.362 357.688C144.287 357.688 140.983 360.989 140.983 365.061C140.983 369.133 144.287 372.434 148.362 372.434Z" fill="url(#paint0_linear_437_25631)"/>
</g>
<path opacity="0.2" d="M148.363 372.103C152.255 372.103 155.41 368.951 155.41 365.062C155.41 361.173 152.255 358.02 148.363 358.02C144.47 358.02 141.315 361.173 141.315 365.062C141.315 368.951 144.47 372.103 148.363 372.103Z" fill="black"/>
<path d="M108.606 223.981C110.113 223.981 111.333 222.761 111.333 221.256C111.333 219.751 110.113 218.531 108.606 218.531C107.1 218.531 105.879 219.751 105.879 221.256C105.879 222.761 107.1 223.981 108.606 223.981Z" fill="white"/>
<path d="M303.243 382.12C304.749 382.12 305.97 380.9 305.97 379.395C305.97 377.89 304.749 376.67 303.243 376.67C301.737 376.67 300.516 377.89 300.516 379.395C300.516 380.9 301.737 382.12 303.243 382.12Z" fill="white"/>
<path d="M188.279 394.809C189.121 394.809 189.803 394.127 189.803 393.286C189.803 392.446 189.121 391.764 188.279 391.764C187.438 391.764 186.755 392.446 186.755 393.286C186.755 394.127 187.438 394.809 188.279 394.809Z" fill="white"/>
<path d="M525.686 321.081C526.527 321.081 527.21 320.399 527.21 319.558C527.21 318.718 526.527 318.036 525.686 318.036C524.844 318.036 524.162 318.718 524.162 319.558C524.162 320.399 524.844 321.081 525.686 321.081Z" fill="white"/>
<path d="M438.527 184.313C439.369 184.313 440.051 183.631 440.051 182.791C440.051 181.95 439.369 181.268 438.527 181.268C437.685 181.268 437.003 181.95 437.003 182.791C437.003 183.631 437.685 184.313 438.527 184.313Z" fill="white"/>
<path d="M562.046 251.094C562.888 251.094 563.57 250.412 563.57 249.571C563.57 248.73 562.888 248.049 562.046 248.049C561.205 248.049 560.521 248.73 560.521 249.571C560.521 250.412 561.205 251.094 562.046 251.094Z" fill="white"/>
<path d="M156.731 134.761C158.237 134.761 159.458 133.541 159.458 132.036C159.458 130.532 158.237 129.312 156.731 129.312C155.225 129.312 154.004 130.532 154.004 132.036C154.004 133.541 155.225 134.761 156.731 134.761Z" fill="white"/>
<path d="M81.78 316.39H79.3523V313.965H78.3632V316.39H75.9355V317.379H78.3632V319.799H79.3523V317.379H81.78V316.39Z" fill="white"/>
<path d="M142.737 315.322H140.31V312.896H139.32V315.322H136.893V316.31H139.32V318.73H140.31V316.31H142.737V315.322Z" fill="white"/>
<path d="M229.896 364.473H227.469V362.048H226.479V364.473H224.052V365.462H226.479V367.882H227.469V365.462H229.896V364.473Z" fill="white"/>
<path d="M351.293 69.8325H350.186V68.7266H349.737V69.8325H348.63V70.2813H349.737V71.3872H350.186V70.2813H351.293V69.8325Z" fill="white"/>
<path d="M509.034 171.341H507.928V170.235H507.478V171.341H506.372V171.789H507.478V172.895H507.928V171.789H509.034V171.341Z" fill="white"/>
<path d="M415.994 237.588H414.887V236.482H414.438V237.588H413.331V238.037H414.438V239.143H414.887V238.037H415.994V237.588Z" fill="white"/>
<path d="M37.4139 279.26H36.307V278.154H35.8579V279.26H34.751V279.709H35.8579V280.814H36.307V279.709H37.4139V279.26Z" fill="white"/>
<path d="M82.865 370.084H81.7582V368.978H81.309V370.084H80.2021V370.533H81.309V371.638H81.7582V370.533H82.865V370.084Z" fill="white"/>
<path d="M225.635 83.1889H224.528V82.083H224.079V83.1889H222.972V83.6377H224.079V84.7436H224.528V83.6377H225.635V83.1889Z" fill="white"/>
<path d="M158.26 242.93H157.153V241.825H156.704V242.93H155.597V243.379H156.704V244.485H157.153V243.379H158.26V242.93Z" fill="white"/>
<path d="M172.698 196.985H171.591V195.879H171.142V196.985H170.035V197.433H171.142V198.539H171.591V197.433H172.698V196.985Z" fill="white"/>
<g opacity="0.7">
<path opacity="0.7" d="M400.049 303.013C403.451 303.013 406.209 300.257 406.209 296.858C406.209 293.459 403.451 290.703 400.049 290.703C396.647 290.703 393.889 293.459 393.889 296.858C393.889 300.257 396.647 303.013 400.049 303.013Z" fill="url(#paint1_linear_437_25631)"/>
</g>
<path opacity="0.2" d="M400.049 302.559C403.2 302.559 405.754 300.006 405.754 296.858C405.754 293.71 403.2 291.158 400.049 291.158C396.898 291.158 394.343 293.71 394.343 296.858C394.343 300.006 396.898 302.559 400.049 302.559Z" fill="black"/>
<path opacity="0.2" d="M415.411 343.359C418.934 343.359 421.79 340.506 421.79 336.986C421.79 333.466 418.934 330.612 415.411 330.612C411.888 330.612 409.032 333.466 409.032 336.986C409.032 340.506 411.888 343.359 415.411 343.359Z" fill="black"/>
<g opacity="0.7">
<path opacity="0.7" d="M358.244 164.032C358.288 150.642 355.077 137.442 348.887 125.566C345.951 119.988 343.272 116.526 341.208 114.394C340.42 113.562 339.39 112.998 338.264 112.782C337.138 112.565 335.972 112.707 334.931 113.187C334.098 113.482 333.346 113.967 332.733 114.603C329.947 117.488 327.429 121.302 325.247 125.357C318.738 137.516 315.362 151.103 315.424 164.892V173.162H310.114V76.9916C310.114 56.8396 305.601 36.96 296.746 19.3296C292.554 10.9739 288.726 5.78097 285.79 2.59147C285.077 1.77977 284.2 1.12941 283.215 0.683849C282.231 0.238294 281.163 0.0078125 280.082 0.0078125C279.001 0.0078125 277.933 0.238294 276.949 0.683849C275.964 1.12941 275.087 1.77977 274.374 2.59147C270.396 6.91359 266.802 12.6301 263.68 18.7046C254.381 36.7196 249.659 57.1708 249.659 77.9105V173.125H245.071V164.454C245.13 150.674 241.754 137.097 235.249 124.946C233.051 120.891 230.532 117.076 227.763 114.191C226.958 113.338 225.901 112.764 224.746 112.554C223.591 112.345 222.4 112.51 221.346 113.027L221.539 113.128C220.867 113.427 220.259 113.851 219.747 114.378C217.689 116.515 215.01 119.972 212.074 125.55C205.884 137.426 202.672 150.626 202.717 164.016V307.73H219.1L217.293 319.542V354.873H230.693V319.542L228.902 307.725H245.05V176.833H249.638V307.158H262.722L260.846 319.542V354.873H274.246V319.542L272.369 307.142H290.014L288.127 319.542V354.873H301.527V319.542L299.65 307.142H310.098V176.849H315.408V307.939H319.713V307.741H333.947L332.161 319.542V354.873H345.561V319.542L343.769 307.725H358.244V164.032Z" fill="url(#paint2_linear_437_25631)"/>
</g>
<path d="M233.35 312.672H220.662L222.929 297.28H231.083L233.35 312.672Z" fill="#535461"/>
<g opacity="0.1">
<path opacity="0.1" d="M222.298 303.393H231.714L231.083 299.092H222.929L222.298 303.393Z" fill="black"/>
</g>
<path d="M342.085 312.672H329.402L331.664 297.28H339.823L342.085 312.672Z" fill="#535461"/>
<g opacity="0.1">
<path opacity="0.1" d="M331.033 303.393H340.454L339.823 299.092H331.664L331.033 303.393Z" fill="black"/>
</g>
<path d="M274.577 312.672H261.894L264.155 297.28H272.315L274.577 312.672Z" fill="#535461"/>
<g opacity="0.1">
<path opacity="0.1" d="M263.524 303.393H272.946L272.315 299.092H264.155L263.524 303.393Z" fill="black"/>
</g>
<path d="M300.404 312.672H287.721L289.983 297.28H298.137L300.404 312.672Z" fill="#535461"/>
<g opacity="0.1">
<path opacity="0.1" d="M289.352 303.393H298.773L298.137 299.092H289.983L289.352 303.393Z" fill="black"/>
</g>
<path d="M323.964 170.08H233.351V173.702H323.964V170.08Z" fill="#535461"/>
<path d="M337.968 112.872C337.489 112.343 336.905 111.921 336.253 111.632C335.601 111.343 334.895 111.194 334.182 111.194C333.469 111.194 332.763 111.343 332.111 111.632C331.459 111.921 330.875 112.343 330.396 112.872C327.76 115.682 325.375 119.395 323.295 123.343C317.125 135.224 313.934 148.424 313.996 161.809V301.164H354.1V161.222C354.15 148.207 351.114 135.366 345.24 123.749C342.454 118.321 339.92 114.923 337.968 112.872Z" fill="#E0E0E0"/>
<path d="M222.966 112.872C223.445 112.343 224.029 111.921 224.681 111.632C225.333 111.343 226.039 111.194 226.752 111.194C227.465 111.194 228.171 111.343 228.823 111.632C229.475 111.921 230.059 112.343 230.538 112.872C233.179 115.682 235.559 119.395 237.644 123.343C243.812 135.225 247.003 148.425 246.943 161.809V301.164H206.839V161.222C206.789 148.207 209.825 135.366 215.699 123.749C218.48 118.321 221.015 114.923 222.966 112.872Z" fill="#E0E0E0"/>
<path d="M207.069 164.192L216.587 164.24V175.962H207.069V164.192Z" fill="#535461"/>
<path d="M237.425 164.192L246.943 164.24V175.962H237.425V164.192Z" fill="#535461"/>
<path d="M313.997 164.192L323.509 164.24V175.962H313.997V164.192Z" fill="#535461"/>
<path d="M344.353 164.192L353.865 164.24V175.962H344.353V164.192Z" fill="#535461"/>
<g opacity="0.1">
<path opacity="0.1" d="M237.644 123.162C235.559 119.213 233.179 115.5 230.538 112.69C229.792 111.864 228.795 111.305 227.701 111.099C226.606 110.894 225.475 111.053 224.479 111.552C225.053 111.838 225.571 112.223 226.009 112.69C228.645 115.5 231.03 119.213 233.11 123.162C239.28 135.042 242.471 148.243 242.409 161.628V300.972H246.943V161.633C247.004 148.247 243.813 135.045 237.644 123.162Z" fill="black"/>
</g>
<g opacity="0.1">
<path opacity="0.1" d="M326.92 123.546C329 119.598 331.385 115.885 334.021 113.075C334.514 112.543 335.111 112.117 335.775 111.825C334.795 111.396 333.705 111.286 332.659 111.511C331.613 111.735 330.665 112.282 329.947 113.075C327.305 115.885 324.921 119.598 322.841 123.546C316.673 135.428 313.482 148.628 313.542 162.012V301.378H317.622V162.023C317.558 148.634 320.749 135.43 326.92 123.546Z" fill="black"/>
</g>
<path d="M227.18 347.078H226.832C225.196 347.078 223.626 346.428 222.469 345.272C221.312 344.116 220.662 342.548 220.662 340.913V312.672H233.35V340.913C233.35 342.548 232.7 344.116 231.543 345.272C230.386 346.428 228.816 347.078 227.18 347.078Z" fill="#FFCC29"/>
<path d="M268.412 347.078H268.059C266.423 347.076 264.855 346.426 263.699 345.27C262.543 344.114 261.894 342.547 261.894 340.913V312.672H274.577V340.913C274.577 342.547 273.928 344.114 272.772 345.27C271.616 346.426 270.047 347.076 268.412 347.078Z" fill="url(#paint3_linear_437_25631)"/>
<path d="M294.234 347.078H293.875C292.242 347.074 290.676 346.422 289.522 345.266C288.369 344.111 287.721 342.545 287.721 340.913V312.672H300.404V340.913C300.404 342.548 299.754 344.116 298.597 345.272C297.44 346.428 295.87 347.078 294.234 347.078Z" fill="url(#paint4_linear_437_25631)"/>
<path d="M335.92 347.078H335.583C334.772 347.079 333.968 346.921 333.219 346.612C332.469 346.302 331.787 345.849 331.213 345.276C330.639 344.703 330.183 344.023 329.873 343.274C329.562 342.526 329.402 341.723 329.402 340.913V312.672H342.085V340.913C342.085 342.547 341.436 344.114 340.28 345.27C339.124 346.426 337.556 347.077 335.92 347.078Z" fill="url(#paint5_linear_437_25631)"/>
<path d="M285.501 3.6066C284.839 2.819 284.012 2.18577 283.078 1.75134C282.145 1.31691 281.128 1.0918 280.098 1.0918C279.068 1.0918 278.051 1.31691 277.118 1.75134C276.184 2.18577 275.357 2.819 274.695 3.6066C270.952 7.81652 267.53 13.3781 264.535 19.2977C255.734 36.8426 251.263 56.7595 251.263 76.9543V300.598H308.478V76.0568C308.478 56.4336 304.2 37.0563 295.837 19.9067C291.907 11.77 288.287 6.71061 285.501 3.6066Z" fill="#EEEEEE"/>
<path d="M288.549 28.4492H270.454C267.206 28.4492 264.573 31.0804 264.573 34.326V36.244C264.573 39.4897 267.206 42.1208 270.454 42.1208H288.549C291.798 42.1208 294.431 39.4897 294.431 36.244V34.326C294.431 31.0804 291.798 28.4492 288.549 28.4492Z" fill="#535461"/>
<g opacity="0.1">
<path opacity="0.1" d="M308.206 84.5996H251.574V86.7954H308.206V84.5996Z" fill="black"/>
</g>
<path d="M406.941 166.329C405.456 164.381 403.598 162.746 401.476 161.521C399.038 160.116 396.309 159.29 393.5 159.107C390.691 158.925 387.878 159.39 385.277 160.467C382.677 161.543 380.36 163.203 378.504 165.318C376.648 167.433 375.304 169.945 374.575 172.662C373.847 175.378 373.753 178.226 374.302 180.984C374.85 183.743 376.027 186.338 377.739 188.57C379.452 190.802 381.656 192.61 384.18 193.855C386.704 195.1 389.48 195.749 392.295 195.751C392.686 195.751 393.076 195.751 393.456 195.708C396.764 195.499 399.954 194.399 402.686 192.525C405.419 190.65 407.593 188.071 408.976 185.062C410.36 182.052 410.902 178.724 410.544 175.432C410.187 172.139 408.944 169.005 406.946 166.361L406.941 166.329Z" fill="url(#paint6_linear_437_25631)"/>
<path opacity="0.2" d="M409.641 177.378C409.641 181.785 407.959 186.028 404.94 189.241C401.92 192.455 397.789 194.398 393.386 194.677C393.028 194.677 392.659 194.714 392.29 194.714C389.626 194.716 386.998 194.105 384.609 192.929C382.22 191.753 380.134 190.044 378.512 187.933C376.89 185.822 375.776 183.367 375.256 180.757C374.736 178.148 374.825 175.453 375.514 172.883C376.203 170.313 377.476 167.935 379.232 165.935C380.988 163.935 383.182 162.365 385.643 161.348C388.104 160.331 390.766 159.893 393.424 160.068C396.081 160.244 398.663 161.028 400.968 162.36C402.978 163.525 404.734 165.08 406.134 166.933C408.414 169.938 409.646 173.607 409.641 177.378Z" fill="black"/>
<path opacity="0.1" d="M388.017 166.377C387.12 166.763 386.255 167.218 385.429 167.74C384.878 168.04 384.404 168.465 384.044 168.979C383.866 169.238 383.768 169.544 383.762 169.858C383.756 170.173 383.843 170.482 384.012 170.747C384.435 171.324 385.247 171.41 385.964 171.453C386.716 171.548 387.481 171.472 388.199 171.228C388.684 170.989 389.125 170.669 389.504 170.283L390.996 168.931C391.53 168.461 392.065 167.814 391.856 167.152C391.733 166.915 391.553 166.713 391.331 166.564C391.11 166.415 390.855 166.323 390.589 166.297C389.303 166.047 387.97 166.281 386.846 166.954" fill="black"/>
<g opacity="0.1">
<path opacity="0.1" d="M381.788 185.136C382.293 185.136 382.702 184.727 382.702 184.222C382.702 183.718 382.293 183.309 381.788 183.309C381.283 183.309 380.874 183.718 380.874 184.222C380.874 184.727 381.283 185.136 381.788 185.136Z" fill="black"/>
</g>
<g opacity="0.1">
<path opacity="0.1" d="M400.353 181.786C402.202 181.786 403.701 180.289 403.701 178.442C403.701 176.595 402.202 175.097 400.353 175.097C398.504 175.097 397.006 176.595 397.006 178.442C397.006 180.289 398.504 181.786 400.353 181.786Z" fill="black"/>
</g>
<g opacity="0.1">
<path opacity="0.1" d="M406.166 166.933C406.156 167.807 405.895 168.66 405.414 169.391C404.933 170.121 404.251 170.698 403.451 171.053C402.651 171.407 401.766 171.525 400.901 171.391C400.036 171.257 399.228 170.878 398.573 170.298C397.918 169.719 397.443 168.963 397.205 168.122C396.967 167.28 396.976 166.388 397.232 165.552C397.487 164.715 397.977 163.97 398.645 163.404C399.312 162.838 400.128 162.475 400.995 162.36C403.007 163.524 404.765 165.079 406.166 166.933Z" fill="black"/>
</g>
<g opacity="0.1">
<path opacity="0.1" d="M406.476 187.358C404.983 189.481 403.032 191.241 400.766 192.508C398.5 193.775 395.977 194.517 393.385 194.678C393.385 194.437 393.354 194.197 393.354 193.951C393.355 192.43 393.78 190.938 394.579 189.644C395.379 188.349 396.523 187.302 397.883 186.618C399.244 185.934 400.767 185.642 402.285 185.773C403.802 185.903 405.253 186.452 406.476 187.358Z" fill="black"/>
</g>
<path d="M169.912 265.3C168.876 263.932 167.578 262.784 166.094 261.923C164.39 260.924 162.478 260.332 160.508 260.193C158.537 260.053 156.561 260.37 154.733 261.118C152.905 261.867 151.275 263.027 149.969 264.508C148.663 265.989 147.718 267.752 147.205 269.658C146.693 271.564 146.628 273.563 147.016 275.498C147.404 277.434 148.233 279.254 149.44 280.816C150.647 282.379 152.199 283.642 153.975 284.507C155.75 285.372 157.702 285.816 159.677 285.804C159.95 285.804 160.212 285.804 160.49 285.778C162.794 285.623 165.013 284.849 166.914 283.54C168.815 282.23 170.327 280.432 171.291 278.335C172.254 276.238 172.634 273.921 172.389 271.626C172.145 269.332 171.285 267.147 169.901 265.3H169.912Z" fill="url(#paint7_linear_437_25631)"/>
<path opacity="0.2" d="M171.794 273.009C171.793 276.084 170.62 279.044 168.513 281.286C166.407 283.528 163.524 284.883 160.452 285.078C160.201 285.078 159.918 285.078 159.688 285.078C157.831 285.077 155.999 284.65 154.334 283.829C152.669 283.009 151.216 281.816 150.086 280.344C148.955 278.873 148.179 277.161 147.817 275.341C147.455 273.522 147.517 271.644 147.997 269.852C148.478 268.06 149.364 266.403 150.588 265.008C151.812 263.613 153.341 262.518 155.056 261.808C156.771 261.098 158.627 260.792 160.48 260.912C162.333 261.033 164.133 261.578 165.741 262.506C167.145 263.322 168.371 264.412 169.345 265.711C170.939 267.81 171.799 270.374 171.794 273.009Z" fill="black"/>
<path opacity="0.1" d="M156.704 265.337C156.079 265.603 155.476 265.919 154.902 266.283C154.52 266.496 154.189 266.792 153.934 267.148C153.816 267.332 153.752 267.546 153.752 267.765C153.752 267.984 153.816 268.198 153.934 268.382C154.112 268.557 154.325 268.692 154.56 268.777C154.794 268.862 155.044 268.895 155.293 268.874C155.818 268.942 156.352 268.889 156.854 268.719C157.194 268.551 157.503 268.327 157.768 268.056L158.806 267.116C159.169 266.785 159.565 266.336 159.405 265.877C159.323 265.708 159.198 265.565 159.043 265.46C158.889 265.355 158.709 265.292 158.522 265.278C157.627 265.103 156.699 265.267 155.918 265.738" fill="black"/>
<g opacity="0.1">
<path opacity="0.1" d="M152.357 278.417C152.708 278.417 152.993 278.132 152.993 277.781C152.993 277.43 152.708 277.145 152.357 277.145C152.005 277.145 151.72 277.43 151.72 277.781C151.72 278.132 152.005 278.417 152.357 278.417Z" fill="black"/>
</g>
<g opacity="0.1">
<path opacity="0.1" d="M165.313 276.086C166.604 276.086 167.65 275.041 167.65 273.752C167.65 272.462 166.604 271.417 165.313 271.417C164.022 271.417 162.976 272.462 162.976 273.752C162.976 275.041 164.022 276.086 165.313 276.086Z" fill="black"/>
</g>
<g opacity="0.1">
<path opacity="0.1" d="M169.35 265.723C169.345 266.339 169.163 266.94 168.825 267.455C168.487 267.97 168.008 268.377 167.445 268.627C166.882 268.877 166.258 268.96 165.649 268.865C165.04 268.77 164.471 268.503 164.011 268.093C163.55 267.684 163.217 267.151 163.052 266.558C162.886 265.965 162.895 265.337 163.078 264.748C163.26 264.16 163.609 263.637 164.081 263.241C164.553 262.846 165.129 262.594 165.741 262.517C167.147 263.333 168.375 264.423 169.35 265.723Z" fill="black"/>
</g>
<g opacity="0.1">
<path opacity="0.1" d="M169.585 279.971C168.544 281.452 167.182 282.681 165.601 283.565C164.02 284.449 162.261 284.966 160.452 285.079C160.452 284.913 160.452 284.742 160.452 284.545C160.453 283.483 160.749 282.443 161.307 281.539C161.865 280.636 162.663 279.905 163.612 279.428C164.561 278.951 165.624 278.747 166.683 278.838C167.741 278.929 168.753 279.312 169.607 279.945L169.585 279.971Z" fill="black"/>
</g>
<path d="M510.601 229.767C511.144 229.767 511.585 229.327 511.585 228.784C511.585 228.242 511.144 227.801 510.601 227.801C510.058 227.801 509.617 228.242 509.617 228.784C509.617 229.327 510.058 229.767 510.601 229.767Z" fill="white"/>
<defs>
<linearGradient id="paint0_linear_437_25631" x1="148.362" y1="372.434" x2="148.362" y2="357.694" gradientUnits="userSpaceOnUse">
<stop stop-color="#808080" stop-opacity="0.25"/>
<stop offset="0.54" stop-color="#808080" stop-opacity="0.12"/>
<stop offset="1" stop-color="#808080" stop-opacity="0.1"/>
</linearGradient>
<linearGradient id="paint1_linear_437_25631" x1="9611.01" y1="7271.99" x2="9611.01" y2="6988.51" gradientUnits="userSpaceOnUse">
<stop stop-color="#808080" stop-opacity="0.25"/>
<stop offset="0.54" stop-color="#808080" stop-opacity="0.12"/>
<stop offset="1" stop-color="#808080" stop-opacity="0.1"/>
</linearGradient>
<linearGradient id="paint2_linear_437_25631" x1="86821.3" y1="250946" x2="86821.3" y2="15220.2" gradientUnits="userSpaceOnUse">
<stop stop-color="#808080" stop-opacity="0.25"/>
<stop offset="0.54" stop-color="#808080" stop-opacity="0.12"/>
<stop offset="1" stop-color="#808080" stop-opacity="0.1"/>
</linearGradient>
<linearGradient id="paint3_linear_437_25631" x1="7035.49" y1="21924.4" x2="7035.49" y2="24140.1" gradientUnits="userSpaceOnUse">
<stop stop-color="#E0E0E0"/>
<stop offset="0.31" stop-color="#FCCC63"/>
<stop offset="0.77" stop-color="#F55F44"/>
</linearGradient>
<linearGradient id="paint4_linear_437_25631" x1="7673.95" y1="21924.4" x2="7673.95" y2="24140.1" gradientUnits="userSpaceOnUse">
<stop stop-color="#E0E0E0"/>
<stop offset="0.31" stop-color="#FCCC63"/>
<stop offset="0.77" stop-color="#F55F44"/>
</linearGradient>
<linearGradient id="paint5_linear_437_25631" x1="8704.29" y1="21924.4" x2="8704.29" y2="24140.2" gradientUnits="userSpaceOnUse">
<stop stop-color="#E0E0E0"/>
<stop offset="0.31" stop-color="#FCCC63"/>
<stop offset="0.77" stop-color="#F55F44"/>
</linearGradient>
<linearGradient id="paint6_linear_437_25631" x1="28489.3" y1="15170.4" x2="28489.3" y2="12651.8" gradientUnits="userSpaceOnUse">
<stop stop-color="#808080" stop-opacity="0.25"/>
<stop offset="0.54" stop-color="#808080" stop-opacity="0.12"/>
<stop offset="1" stop-color="#808080" stop-opacity="0.1"/>
</linearGradient>
<linearGradient id="paint7_linear_437_25631" x1="8652.98" y1="15078.6" x2="8652.98" y2="13850" gradientUnits="userSpaceOnUse">
<stop stop-color="#808080" stop-opacity="0.25"/>
<stop offset="0.54" stop-color="#808080" stop-opacity="0.12"/>
<stop offset="1" stop-color="#808080" stop-opacity="0.1"/>
</linearGradient>
</defs>
</svg>
